<svg xmlns="http://www.w3.org/2000/svg" xmlns:xlink="http://www.w3.org/1999/xlink" width="500" zoomAndPan="magnify" viewBox="0 0 375 374.999991" height="500" preserveAspectRatio="xMidYMid meet" version="1.0"><defs><clipPath id="18aa0634d8"><path d="M 128.625 95.914062 L 245.417969 95.914062 L 245.417969 217.898438 L 128.625 217.898438 Z M 128.625 95.914062 " clip-rule="nonzero"/></clipPath></defs><path fill="#ffffff" d="M 155.84375 225.417969 C 164.0625 225.417969 172.023438 224.175781 179.742188 221.6875 C 187.488281 219.199219 193.179688 216.820312 196.828125 214.550781 L 202.234375 210.820312 L 225.160156 256.671875 C 224.40625 257.253906 223.351562 258.023438 222.023438 258.996094 C 220.6875 259.945312 217.589844 261.699219 212.726562 264.296875 C 207.859375 266.863281 202.640625 269.09375 197.097656 271 C 191.542969 272.921875 184.285156 274.625 175.308594 276.136719 C 166.332031 277.679688 157.058594 278.460938 147.515625 278.460938 C 125.5625 278.460938 104.746094 273.082031 85.0625 262.296875 C 65.382812 251.480469 49.511719 236.613281 37.480469 217.6875 C 25.4375 198.761719 19.421875 178.324219 19.421875 156.371094 C 19.421875 139.757812 22.949219 123.808594 30.019531 108.519531 C 37.074219 93.242188 46.484375 80.15625 58.246094 69.261719 C 69.992188 58.339844 83.683594 49.636719 99.339844 43.148438 C 115.019531 36.65625 131.078125 33.414062 147.515625 33.414062 C 162.789062 33.414062 176.890625 35.238281 189.800781 38.875 C 202.695312 42.484375 211.820312 46.105469 217.160156 49.742188 L 225.160156 55.203125 L 202.234375 101.054688 C 200.898438 99.90625 198.894531 98.515625 196.234375 96.894531 C 193.558594 95.269531 188.203125 93.136719 180.175781 90.457031 C 172.171875 87.753906 164.0625 86.402344 155.84375 86.402344 C 142.824219 86.402344 131.160156 88.511719 120.859375 92.730469 C 110.542969 96.945312 102.378906 102.503906 96.363281 109.382812 C 90.335938 116.238281 85.738281 123.632812 82.578125 131.550781 C 79.441406 139.488281 77.871094 147.558594 77.871094 155.777344 C 77.871094 173.726562 84.589844 189.828125 98.039062 204.0625 C 111.519531 218.308594 130.78125 225.417969 155.84375 225.417969 Z M 155.84375 225.417969 " fill-opacity="1" fill-rule="nonzero"/><path fill="#ffbc4b" d="M 188.5 37.683594 L 261.875 37.683594 C 284.046875 37.683594 301.699219 42.429688 314.867188 51.90625 C 328.058594 61.355469 334.65625 76.671875 334.65625 97.867188 C 334.65625 121.589844 324.8125 138.515625 305.132812 148.636719 C 338.765625 154.558594 355.582031 174.417969 355.582031 208.226562 C 355.582031 228.097656 348.6875 244.046875 334.925781 256.078125 C 321.191406 268.121094 302.28125 274.136719 278.207031 274.136719 L 188.5 274.136719 Z M 242.355469 130.253906 L 246.683594 130.253906 C 258.710938 130.253906 267.6875 128.171875 273.609375 123.980469 C 279.515625 119.765625 282.476562 112.882812 282.476562 103.328125 C 282.476562 87.296875 270.539062 79.265625 246.683594 79.265625 L 242.355469 79.265625 Z M 242.355469 232.554688 L 259.28125 232.554688 C 285.667969 232.554688 298.859375 223.785156 298.859375 206.222656 C 298.859375 195.707031 295.5625 188.152344 288.964844 183.570312 C 282.367188 179 272.472656 176.703125 259.28125 176.703125 L 242.355469 176.703125 Z M 242.355469 232.554688 " fill-opacity="1" fill-rule="nonzero"/><g clip-path="url(#18aa0634d8)"><path fill="#ffffff" d="M 245.390625 155.957031 L 228.171875 155.957031 C 198.703125 149.46875 192.144531 142.777344 185.765625 112.742188 L 185.765625 95.914062 L 183.589844 95.914062 L 183.589844 112.933594 C 177.222656 142.804688 170.625 149.484375 141.210938 155.957031 L 128.640625 155.957031 L 128.640625 158.175781 L 141.210938 158.175781 C 170.625 164.652344 177.222656 171.328125 183.589844 201.203125 L 183.589844 217.898438 L 185.765625 217.898438 L 185.765625 201.378906 C 192.144531 171.355469 198.703125 164.664062 228.171875 158.175781 L 245.390625 158.175781 Z M 245.390625 155.957031 " fill-opacity="1" fill-rule="nonzero"/></g><path fill="#ffffff" d="M 40.957031 328.65625 C 39.335938 328.65625 37.820312 328.347656 36.414062 327.738281 C 35.035156 327.128906 33.832031 326.304688 32.792969 325.25 C 31.777344 324.210938 30.96875 322.964844 30.359375 321.519531 C 29.777344 320.085938 29.496094 318.53125 29.496094 316.871094 C 29.496094 315.179688 29.792969 313.613281 30.414062 312.164062 C 31.023438 310.691406 31.847656 309.40625 32.902344 308.324219 C 33.941406 307.21875 35.171875 306.351562 36.578125 305.730469 C 37.984375 305.121094 39.472656 304.8125 41.066406 304.8125 C 42.796875 304.8125 44.417969 305.175781 45.933594 305.894531 C 47.445312 306.621094 48.742188 307.609375 49.824219 308.867188 L 47.988281 310.378906 C 47.082031 309.378906 46.039062 308.597656 44.851562 308.054688 C 43.6875 307.488281 42.417969 307.191406 41.011719 307.191406 C 39.714844 307.191406 38.523438 307.433594 37.441406 307.894531 C 36.363281 308.367188 35.414062 309.027344 34.632812 309.894531 C 33.832031 310.757812 33.199219 311.773438 32.738281 312.921875 C 32.304688 314.085938 32.089844 315.339844 32.089844 316.707031 C 32.089844 318.085938 32.304688 319.355469 32.738281 320.546875 C 33.199219 321.734375 33.832031 322.75 34.632812 323.574219 C 35.457031 324.414062 36.414062 325.074219 37.496094 325.574219 C 38.605469 326.046875 39.835938 326.277344 41.175781 326.277344 C 42.605469 326.277344 43.90625 325.992188 45.066406 325.414062 C 46.257812 324.84375 47.257812 324.0625 48.09375 323.085938 L 49.824219 324.601562 C 48.742188 325.871094 47.445312 326.859375 45.933594 327.574219 C 44.417969 328.304688 42.753906 328.65625 40.957031 328.65625 Z M 40.957031 328.65625 " fill-opacity="1" fill-rule="nonzero"/><path fill="#ffffff" d="M 64.875 305.136719 L 70.390625 305.136719 C 71.539062 305.136719 72.609375 305.324219 73.582031 305.675781 C 74.554688 306 75.378906 306.472656 76.070312 307.082031 C 76.785156 307.703125 77.339844 308.421875 77.746094 309.246094 C 78.136719 310.082031 78.339844 310.976562 78.339844 311.949219 C 78.339844 312.785156 78.203125 313.558594 77.960938 314.273438 C 77.703125 314.964844 77.339844 315.597656 76.878906 316.167969 C 76.445312 316.707031 75.90625 317.179688 75.257812 317.570312 C 74.609375 317.976562 73.90625 318.273438 73.148438 318.492188 L 79.746094 328.332031 L 76.824219 328.332031 L 70.390625 318.761719 L 67.253906 318.761719 L 67.253906 328.332031 L 64.875 328.332031 Z M 70.390625 316.542969 C 72.039062 316.542969 73.378906 316.140625 74.390625 315.300781 C 75.394531 314.476562 75.90625 313.355469 75.90625 311.949219 C 75.90625 310.542969 75.394531 309.449219 74.390625 308.652344 C 73.378906 307.824219 72.039062 307.40625 70.390625 307.40625 L 67.253906 307.40625 L 67.253906 316.542969 Z M 70.390625 316.542969 " fill-opacity="1" fill-rule="nonzero"/><path fill="#ffffff" d="M 101.335938 304.433594 L 102.039062 304.433594 L 110.851562 328.332031 L 108.203125 328.332031 L 106.039062 322.222656 L 97.226562 322.222656 L 95.0625 328.332031 L 92.519531 328.332031 Z M 105.226562 320.003906 L 101.660156 309.949219 L 98.035156 320.003906 Z M 105.226562 320.003906 " fill-opacity="1" fill-rule="nonzero"/><path fill="#ffffff" d="M 125.417969 305.136719 L 137.3125 305.136719 L 137.3125 307.40625 L 127.796875 307.40625 L 127.796875 315.894531 L 135.097656 315.894531 L 135.097656 318.113281 L 127.796875 318.113281 L 127.796875 328.332031 L 125.417969 328.332031 Z M 125.417969 305.136719 " fill-opacity="1" fill-rule="nonzero"/><path fill="#ffffff" d="M 157.75 307.40625 L 150.125 307.40625 L 150.125 305.136719 L 167.804688 305.136719 L 167.804688 307.40625 L 160.183594 307.40625 L 160.183594 328.332031 L 157.75 328.332031 Z M 157.75 307.40625 " fill-opacity="1" fill-rule="nonzero"/><path fill="#ffffff" d="M 200.320312 305.136719 L 205.511719 305.136719 C 206.554688 305.136719 207.527344 305.296875 208.433594 305.621094 C 209.324219 305.921875 210.109375 306.324219 210.757812 306.867188 C 211.40625 307.40625 211.90625 308.054688 212.269531 308.8125 C 212.621094 309.542969 212.8125 310.328125 212.8125 311.191406 C 212.8125 312.273438 212.542969 313.234375 212 314.058594 C 211.488281 314.894531 210.757812 315.558594 209.785156 316.058594 C 211.109375 316.570312 212.175781 317.328125 212.972656 318.328125 C 213.757812 319.34375 214.164062 320.519531 214.164062 321.84375 C 214.164062 322.789062 213.960938 323.65625 213.570312 324.4375 C 213.164062 325.195312 212.609375 325.886719 211.890625 326.492188 C 211.203125 327.074219 210.351562 327.519531 209.351562 327.84375 C 208.378906 328.171875 207.308594 328.332031 206.160156 328.332031 L 200.320312 328.332031 Z M 206.160156 326.0625 C 207.808594 326.0625 209.148438 325.667969 210.164062 324.871094 C 211.203125 324.085938 211.730469 323.019531 211.730469 321.679688 C 211.730469 320.382812 211.203125 319.34375 210.164062 318.546875 C 209.148438 317.722656 207.808594 317.300781 206.160156 317.300781 L 202.699219 317.300781 L 202.699219 326.0625 Z M 205.511719 315.191406 C 206.984375 315.191406 208.160156 314.855469 209.027344 314.164062 C 209.917969 313.449219 210.378906 312.515625 210.378906 311.355469 C 210.378906 310.136719 209.917969 309.175781 209.027344 308.488281 C 208.160156 307.773438 206.984375 307.40625 205.511719 307.40625 L 202.699219 307.40625 L 202.699219 315.191406 Z M 205.511719 315.191406 " fill-opacity="1" fill-rule="nonzero"/><path fill="#ffffff" d="M 229.730469 305.136719 L 235.246094 305.136719 C 236.398438 305.136719 237.464844 305.324219 238.4375 305.675781 C 239.410156 306 240.234375 306.472656 240.925781 307.082031 C 241.640625 307.703125 242.195312 308.421875 242.601562 309.246094 C 242.992188 310.082031 243.195312 310.976562 243.195312 311.949219 C 243.195312 312.785156 243.0625 313.558594 242.816406 314.273438 C 242.5625 314.964844 242.195312 315.597656 241.734375 316.167969 C 241.304688 316.707031 240.761719 317.179688 240.113281 317.570312 C 239.464844 317.976562 238.761719 318.273438 238.003906 318.492188 L 244.601562 328.332031 L 241.683594 328.332031 L 235.246094 318.761719 L 232.113281 318.761719 L 232.113281 328.332031 L 229.730469 328.332031 Z M 235.246094 316.542969 C 236.898438 316.542969 238.234375 316.140625 239.25 315.300781 C 240.25 314.476562 240.761719 313.355469 240.761719 311.949219 C 240.761719 310.542969 240.25 309.449219 239.25 308.652344 C 238.234375 307.824219 236.898438 307.40625 235.246094 307.40625 L 232.113281 307.40625 L 232.113281 316.542969 Z M 235.246094 316.542969 " fill-opacity="1" fill-rule="nonzero"/><path fill="#ffffff" d="M 266.191406 304.433594 L 266.894531 304.433594 L 275.707031 328.332031 L 273.058594 328.332031 L 270.894531 322.222656 L 262.082031 322.222656 L 259.917969 328.332031 L 257.378906 328.332031 Z M 270.082031 320.003906 L 266.515625 309.949219 L 262.890625 320.003906 Z M 270.082031 320.003906 " fill-opacity="1" fill-rule="nonzero"/><path fill="#ffffff" d="M 292.601562 310.328125 L 292.601562 328.332031 L 290.277344 328.332031 L 290.277344 304.433594 L 290.925781 304.433594 L 306.605469 323.195312 L 306.605469 305.136719 L 308.933594 305.136719 L 308.933594 329.035156 L 308.230469 329.035156 Z M 292.601562 310.328125 " fill-opacity="1" fill-rule="nonzero"/><path fill="#ffffff" d="M 325.566406 305.136719 L 333.132812 305.136719 C 334.890625 305.136719 336.515625 305.433594 338 306 C 339.515625 306.582031 340.8125 307.394531 341.894531 308.433594 C 343.003906 309.488281 343.867188 310.730469 344.488281 312.164062 C 345.136719 313.570312 345.464844 315.113281 345.464844 316.761719 C 345.464844 318.421875 345.136719 319.953125 344.488281 321.355469 C 343.867188 322.761719 343.003906 323.992188 341.894531 325.035156 C 340.8125 326.046875 339.515625 326.859375 338 327.46875 C 336.515625 328.046875 334.890625 328.332031 333.132812 328.332031 L 325.566406 328.332031 Z M 333.082031 326.0625 C 334.488281 326.0625 335.785156 325.84375 336.972656 325.414062 C 338.191406 324.953125 339.246094 324.304688 340.109375 323.464844 C 340.976562 322.640625 341.636719 321.65625 342.109375 320.492188 C 342.609375 319.34375 342.867188 318.097656 342.867188 316.761719 C 342.867188 315.394531 342.609375 314.140625 342.109375 312.976562 C 341.636719 311.828125 340.976562 310.839844 340.109375 310.003906 C 339.246094 309.175781 338.191406 308.542969 336.972656 308.109375 C 335.785156 307.648438 334.488281 307.40625 333.082031 307.40625 L 327.945312 307.40625 L 327.945312 326.0625 Z M 333.082031 326.0625 " fill-opacity="1" fill-rule="nonzero"/></svg>