<svg xmlns="http://www.w3.org/2000/svg" xmlns:xlink="http://www.w3.org/1999/xlink" width="500" zoomAndPan="magnify" viewBox="0 0 375 374.999991" height="500" preserveAspectRatio="xMidYMid meet" version="1.0"><defs><clipPath id="bdbb3c4566"><path d="M 170.488281 161.035156 L 204.238281 161.035156 L 204.238281 196.285156 L 170.488281 196.285156 Z M 170.488281 161.035156 " clip-rule="nonzero"/></clipPath></defs><path fill="#ffffff" d="M 178.351562 198.457031 C 180.726562 198.457031 183.027344 198.097656 185.257812 197.378906 C 187.496094 196.660156 189.140625 195.972656 190.195312 195.316406 L 191.757812 194.238281 L 198.382812 207.488281 C 198.164062 207.65625 197.859375 207.878906 197.476562 208.160156 C 197.089844 208.433594 196.195312 208.941406 194.789062 209.691406 C 193.382812 210.433594 191.875 211.078125 190.273438 211.628906 C 188.667969 212.183594 186.570312 212.675781 183.976562 213.113281 C 181.382812 213.558594 178.703125 213.785156 175.945312 213.785156 C 169.601562 213.785156 163.585938 212.230469 157.898438 209.113281 C 152.210938 205.988281 147.625 201.691406 144.148438 196.222656 C 140.667969 190.753906 138.929688 184.847656 138.929688 178.503906 C 138.929688 173.703125 139.949219 169.09375 141.992188 164.675781 C 144.03125 160.261719 146.75 156.480469 150.148438 153.332031 C 153.542969 150.175781 157.5 147.660156 162.023438 145.785156 C 166.554688 143.910156 171.195312 142.972656 175.945312 142.972656 C 180.359375 142.972656 184.433594 143.5 188.164062 144.550781 C 191.890625 145.59375 194.527344 146.640625 196.070312 147.691406 L 198.382812 149.269531 L 191.757812 162.519531 C 191.371094 162.1875 190.792969 161.785156 190.023438 161.316406 C 189.25 160.847656 187.703125 160.230469 185.382812 159.457031 C 183.070312 158.675781 180.726562 158.285156 178.351562 158.285156 C 174.589844 158.285156 171.21875 158.894531 168.242188 160.113281 C 165.261719 161.332031 162.902344 162.9375 161.164062 164.925781 C 159.421875 166.90625 158.09375 169.042969 157.179688 171.332031 C 156.273438 173.625 155.820312 175.957031 155.820312 178.332031 C 155.820312 183.519531 157.761719 188.171875 161.648438 192.285156 C 165.542969 196.402344 171.109375 198.457031 178.351562 198.457031 Z M 178.351562 198.457031 " fill-opacity="1" fill-rule="nonzero"/><path fill="#ffbc4b" d="M 187.789062 144.207031 L 208.992188 144.207031 C 215.398438 144.207031 220.5 145.578125 224.304688 148.316406 C 228.117188 151.046875 230.023438 155.472656 230.023438 161.597656 C 230.023438 168.453125 227.179688 173.34375 221.492188 176.269531 C 231.210938 177.980469 236.070312 183.71875 236.070312 193.488281 C 236.070312 199.230469 234.078125 203.839844 230.101562 207.316406 C 226.132812 210.796875 220.667969 212.535156 213.710938 212.535156 L 187.789062 212.535156 Z M 203.351562 170.957031 L 204.601562 170.957031 C 208.078125 170.957031 210.671875 170.355469 212.382812 169.144531 C 214.089844 167.925781 214.945312 165.9375 214.945312 163.175781 C 214.945312 158.542969 211.496094 156.222656 204.601562 156.222656 L 203.351562 156.222656 Z M 203.351562 200.519531 L 208.242188 200.519531 C 215.867188 200.519531 219.679688 197.984375 219.679688 192.910156 C 219.679688 189.871094 218.726562 187.6875 216.820312 186.363281 C 214.914062 185.042969 212.054688 184.378906 208.242188 184.378906 L 203.351562 184.378906 Z M 203.351562 200.519531 " fill-opacity="1" fill-rule="nonzero"/><g clip-path="url(#bdbb3c4566)"><path fill="#271e52" d="M 204.230469 178.386719 L 199.253906 178.386719 C 190.738281 176.511719 188.84375 174.578125 187 165.898438 L 187 161.035156 L 186.371094 161.035156 L 186.371094 165.953125 C 184.53125 174.585938 182.625 176.515625 174.125 178.386719 L 170.492188 178.386719 L 170.492188 179.027344 L 174.125 179.027344 C 182.625 180.898438 184.53125 182.828125 186.371094 191.460938 L 186.371094 196.285156 L 187 196.285156 L 187 191.511719 C 188.84375 182.835938 190.738281 180.902344 199.253906 179.027344 L 204.230469 179.027344 Z M 204.230469 178.386719 " fill-opacity="1" fill-rule="nonzero"/></g><path fill="#ffffff" d="M 145.15625 228.292969 C 144.6875 228.292969 144.25 228.203125 143.84375 228.027344 C 143.445312 227.851562 143.097656 227.613281 142.796875 227.308594 C 142.503906 227.007812 142.269531 226.648438 142.09375 226.230469 C 141.925781 225.816406 141.84375 225.367188 141.84375 224.886719 C 141.84375 224.398438 141.929688 223.945312 142.109375 223.527344 C 142.285156 223.101562 142.523438 222.730469 142.828125 222.417969 C 143.128906 222.097656 143.484375 221.847656 143.890625 221.667969 C 144.296875 221.492188 144.726562 221.402344 145.1875 221.402344 C 145.6875 221.402344 146.15625 221.507812 146.59375 221.714844 C 147.03125 221.925781 147.40625 222.210938 147.71875 222.574219 L 147.1875 223.011719 C 146.925781 222.722656 146.625 222.496094 146.28125 222.339844 C 145.945312 222.175781 145.578125 222.089844 145.171875 222.089844 C 144.796875 222.089844 144.453125 222.160156 144.140625 222.292969 C 143.828125 222.429688 143.554688 222.621094 143.328125 222.871094 C 143.097656 223.121094 142.914062 223.414062 142.78125 223.746094 C 142.65625 224.082031 142.59375 224.445312 142.59375 224.839844 C 142.59375 225.238281 142.65625 225.605469 142.78125 225.949219 C 142.914062 226.292969 143.097656 226.585938 143.328125 226.824219 C 143.566406 227.066406 143.84375 227.257812 144.15625 227.402344 C 144.476562 227.539062 144.832031 227.605469 145.21875 227.605469 C 145.632812 227.605469 146.007812 227.523438 146.34375 227.355469 C 146.6875 227.191406 146.976562 226.964844 147.21875 226.683594 L 147.71875 227.121094 C 147.40625 227.488281 147.03125 227.773438 146.59375 227.980469 C 146.15625 228.191406 145.675781 228.292969 145.15625 228.292969 Z M 145.15625 228.292969 " fill-opacity="1" fill-rule="nonzero"/><path fill="#ffffff" d="M 152.066406 221.496094 L 153.660156 221.496094 C 153.992188 221.496094 154.300781 221.550781 154.582031 221.652344 C 154.863281 221.746094 155.101562 221.882812 155.300781 222.058594 C 155.507812 222.238281 155.667969 222.445312 155.785156 222.683594 C 155.898438 222.925781 155.957031 223.183594 155.957031 223.464844 C 155.957031 223.707031 155.917969 223.929688 155.847656 224.136719 C 155.773438 224.335938 155.667969 224.519531 155.535156 224.683594 C 155.410156 224.839844 155.253906 224.976562 155.066406 225.089844 C 154.878906 225.207031 154.675781 225.292969 154.457031 225.355469 L 156.363281 228.199219 L 155.519531 228.199219 L 153.660156 225.433594 L 152.753906 225.433594 L 152.753906 228.199219 L 152.066406 228.199219 Z M 153.660156 224.792969 C 154.136719 224.792969 154.523438 224.675781 154.816406 224.433594 C 155.105469 224.195312 155.253906 223.871094 155.253906 223.464844 C 155.253906 223.058594 155.105469 222.742188 154.816406 222.511719 C 154.523438 222.273438 154.136719 222.152344 153.660156 222.152344 L 152.753906 222.152344 L 152.753906 224.792969 Z M 153.660156 224.792969 " fill-opacity="1" fill-rule="nonzero"/><path fill="#ffffff" d="M 162.601562 221.292969 L 162.804688 221.292969 L 165.351562 228.199219 L 164.585938 228.199219 L 163.960938 226.433594 L 161.414062 226.433594 L 160.789062 228.199219 L 160.054688 228.199219 Z M 163.726562 225.792969 L 162.695312 222.886719 L 161.648438 225.792969 Z M 163.726562 225.792969 " fill-opacity="1" fill-rule="nonzero"/><path fill="#ffffff" d="M 169.5625 221.496094 L 173 221.496094 L 173 222.152344 L 170.25 222.152344 L 170.25 224.605469 L 172.359375 224.605469 L 172.359375 225.246094 L 170.25 225.246094 L 170.25 228.199219 L 169.5625 228.199219 Z M 169.5625 221.496094 " fill-opacity="1" fill-rule="nonzero"/><path fill="#ffffff" d="M 178.902344 222.152344 L 176.699219 222.152344 L 176.699219 221.496094 L 181.808594 221.496094 L 181.808594 222.152344 L 179.605469 222.152344 L 179.605469 228.199219 L 178.902344 228.199219 Z M 178.902344 222.152344 " fill-opacity="1" fill-rule="nonzero"/><path fill="#ffffff" d="M 191.207031 221.496094 L 192.707031 221.496094 C 193.007812 221.496094 193.289062 221.542969 193.550781 221.636719 C 193.808594 221.722656 194.035156 221.839844 194.222656 221.996094 C 194.410156 222.152344 194.554688 222.339844 194.660156 222.558594 C 194.761719 222.769531 194.816406 222.996094 194.816406 223.246094 C 194.816406 223.558594 194.738281 223.835938 194.582031 224.074219 C 194.433594 224.316406 194.222656 224.507812 193.941406 224.652344 C 194.324219 224.800781 194.632812 225.019531 194.863281 225.308594 C 195.089844 225.601562 195.207031 225.941406 195.207031 226.324219 C 195.207031 226.597656 195.148438 226.847656 195.035156 227.074219 C 194.917969 227.292969 194.757812 227.492188 194.550781 227.667969 C 194.351562 227.835938 194.105469 227.964844 193.816406 228.058594 C 193.535156 228.152344 193.226562 228.199219 192.894531 228.199219 L 191.207031 228.199219 Z M 192.894531 227.542969 C 193.371094 227.542969 193.757812 227.429688 194.050781 227.199219 C 194.351562 226.972656 194.503906 226.664062 194.503906 226.277344 C 194.503906 225.902344 194.351562 225.601562 194.050781 225.371094 C 193.757812 225.132812 193.371094 225.011719 192.894531 225.011719 L 191.894531 225.011719 L 191.894531 227.542969 Z M 192.707031 224.402344 C 193.132812 224.402344 193.472656 224.304688 193.722656 224.105469 C 193.980469 223.898438 194.113281 223.628906 194.113281 223.292969 C 194.113281 222.941406 193.980469 222.664062 193.722656 222.464844 C 193.472656 222.257812 193.132812 222.152344 192.707031 222.152344 L 191.894531 222.152344 L 191.894531 224.402344 Z M 192.707031 224.402344 " fill-opacity="1" fill-rule="nonzero"/><path fill="#ffffff" d="M 199.707031 221.496094 L 201.300781 221.496094 C 201.632812 221.496094 201.941406 221.550781 202.222656 221.652344 C 202.503906 221.746094 202.742188 221.882812 202.941406 222.058594 C 203.148438 222.238281 203.308594 222.445312 203.425781 222.683594 C 203.539062 222.925781 203.597656 223.183594 203.597656 223.464844 C 203.597656 223.707031 203.558594 223.929688 203.488281 224.136719 C 203.414062 224.335938 203.308594 224.519531 203.175781 224.683594 C 203.050781 224.839844 202.894531 224.976562 202.707031 225.089844 C 202.519531 225.207031 202.316406 225.292969 202.097656 225.355469 L 204.003906 228.199219 L 203.160156 228.199219 L 201.300781 225.433594 L 200.394531 225.433594 L 200.394531 228.199219 L 199.707031 228.199219 Z M 201.300781 224.792969 C 201.777344 224.792969 202.164062 224.675781 202.457031 224.433594 C 202.746094 224.195312 202.894531 223.871094 202.894531 223.464844 C 202.894531 223.058594 202.746094 222.742188 202.457031 222.511719 C 202.164062 222.273438 201.777344 222.152344 201.300781 222.152344 L 200.394531 222.152344 L 200.394531 224.792969 Z M 201.300781 224.792969 " fill-opacity="1" fill-rule="nonzero"/><path fill="#ffffff" d="M 210.242188 221.292969 L 210.445312 221.292969 L 212.992188 228.199219 L 212.226562 228.199219 L 211.601562 226.433594 L 209.054688 226.433594 L 208.429688 228.199219 L 207.695312 228.199219 Z M 211.367188 225.792969 L 210.335938 222.886719 L 209.289062 225.792969 Z M 211.367188 225.792969 " fill-opacity="1" fill-rule="nonzero"/><path fill="#ffffff" d="M 217.875 222.996094 L 217.875 228.199219 L 217.203125 228.199219 L 217.203125 221.292969 L 217.390625 221.292969 L 221.921875 226.714844 L 221.921875 221.496094 L 222.59375 221.496094 L 222.59375 228.402344 L 222.390625 228.402344 Z M 217.875 222.996094 " fill-opacity="1" fill-rule="nonzero"/><path fill="#ffffff" d="M 227.398438 221.496094 L 229.585938 221.496094 C 230.09375 221.496094 230.5625 221.582031 230.992188 221.746094 C 231.429688 221.914062 231.804688 222.148438 232.117188 222.449219 C 232.4375 222.753906 232.6875 223.113281 232.867188 223.527344 C 233.054688 223.933594 233.148438 224.378906 233.148438 224.855469 C 233.148438 225.335938 233.054688 225.777344 232.867188 226.183594 C 232.6875 226.589844 232.4375 226.945312 232.117188 227.246094 C 231.804688 227.539062 231.429688 227.773438 230.992188 227.949219 C 230.5625 228.117188 230.09375 228.199219 229.585938 228.199219 L 227.398438 228.199219 Z M 229.570312 227.542969 C 229.976562 227.542969 230.351562 227.480469 230.695312 227.355469 C 231.046875 227.222656 231.351562 227.035156 231.601562 226.792969 C 231.851562 226.554688 232.042969 226.269531 232.179688 225.933594 C 232.324219 225.601562 232.398438 225.242188 232.398438 224.855469 C 232.398438 224.460938 232.324219 224.097656 232.179688 223.761719 C 232.042969 223.429688 231.851562 223.144531 231.601562 222.902344 C 231.351562 222.664062 231.046875 222.480469 230.695312 222.355469 C 230.351562 222.222656 229.976562 222.152344 229.570312 222.152344 L 228.085938 222.152344 L 228.085938 227.542969 Z M 229.570312 227.542969 " fill-opacity="1" fill-rule="nonzero"/></svg>